Coordinates
version=1
nRows=24
nColumns=19
inDegrees=yes

Units are S.I. units (second, meters, Newtons, ...)
If the header above contains a line with 'inDegrees', this indicates whether rotational values are in degrees (yes) or radians (no).

endheader
time	pelvis_tilt	pelvis_list	pelvis_rotation	pelvis_tx	pelvis_ty	pelvis_tz	hip_flexion_r	hip_adduction_r	hip_rotation_r	knee_angle_r	knee_angle_r_beta	ankle_angle_r	hip_flexion_l	hip_adduction_l	hip_rotation_l	knee_angle_l	knee_angle_l_beta	ankle_angle_l
     12.04000000	     -3.91605586	     -8.19461328	     -5.10938210	      2.26047849	      0.96786516	      1.04444457	     26.04215358	     11.71452323	    -11.88809061	     13.21680101	      0.23067669	      4.79261643	    -12.10900357	    -12.60104454	    -17.11862645	     53.50964310	      0.93391945	    -11.83971775
     12.04666667	     -3.34706464	     -8.88734212	     -5.56845816	      2.25935211	      0.96489321	      1.04512903	     25.90873547	     12.22701784	    -12.57199195	     15.92979289	      0.27802734	      4.83629952	    -11.44656760	    -13.30457250	    -16.47146311	     57.31093356	      1.00026449	    -10.80657199
     12.05333333	     -2.39423304	     -9.65594200	     -6.05238031	      2.25825262	      0.96197053	      1.04558947	     25.36009208	     12.70552107	    -13.20167195	     18.99568284	      0.33153721	      5.02376997	    -11.20673871	    -14.01753000	    -16.00949194	     60.98532339	      1.06439469	     -9.92472327
     12.06000000	     -2.06542677	     -9.99920022	     -6.56650856	      2.25675752	      0.95795665	      1.04588680	     25.68559751	     12.67002253	    -13.70217959	     22.62095295	      0.39481011	      5.40033684	     -9.96272309	    -14.27063706	    -15.22218824	     64.81093303	      1.13116417	     -9.08927403
     12.06666667	     -1.37323368	    -10.45554147	     -7.08285665	      2.25538972	      0.95406586	      1.04607013	     25.47406838	     12.73570855	    -13.90286480	     26.19156979	      0.45712913	      5.99266229	     -9.15403439	    -14.61134311	    -14.63788289	     68.42746560	      1.19428457	     -8.38083108
     12.07333333	     -0.71981535	    -10.80799666	     -7.60700788	      2.25391717	      0.94997133	      1.04621579	     25.20848210	     12.72954204	    -13.81043804	     29.69138807	      0.51821248	      6.85526668	     -8.19870058	    -14.86818333	    -14.09333500	     71.94313791	      1.25564463	     -7.73664348
     12.08000000	      0.29614876	    -11.42538817	     -8.08718801	      2.25248263	      0.94631338	      1.04636891	     24.27087044	     13.04722180	    -13.47021134	     32.77571230	      0.57204409	      7.98317351	     -7.69510512	    -15.48543250	    -13.79601306	     75.23770339	      1.31314565	     -7.15054816
     12.08666667	      0.25037325	    -11.33362537	     -8.68125001	      2.25060842	      0.94146145	      1.04669689	     24.63408122	     12.80766284	    -12.79310403	     36.06895610	      0.62952204	      9.44198359	     -5.61820488	    -15.40724266	    -13.08986569	     78.61182170	      1.37203512	     -6.49853647
     12.09333333	      0.51638841	    -11.51977700	     -9.20019570	      2.24880600	      0.93722801	      1.04710096	     24.33104131	     12.92617895	    -12.02264244	     38.81214188	      0.67739967	     11.12904873	     -3.93414687	    -15.74395536	    -12.57847150	     81.71195340	      1.42614263	     -5.88584736
     12.10000000	      0.62245306	    -11.68810232	     -9.63666134	      2.24697346	      0.93321301	      1.04752530	     23.98549229	     13.09770639	    -11.22825084	     41.16407913	      0.71844871	     13.00006122	     -1.95407019	    -16.17001082	    -11.96918892	     84.61795515	      1.47686192	     -5.25844924
     12.10666667	      1.13470883	    -11.98521464	     -9.95681217	      2.24519156	      0.93012798	      1.04801068	     22.88879206	     13.40436655	    -10.40216633	     42.99880449	      0.75047071	     15.05092473	     -0.44951865	    -16.80219232	    -11.47355316	     87.15805040	      1.52119495	     -4.60130231
     12.11333333	      0.53284238	    -11.91321477	    -10.25728780	      2.24328574	      0.92632784	      1.04858556	     22.93317338	     13.48764525	     -9.66778347	     44.63484246	      0.77902496	     16.99324790	      2.64822482	    -17.19236617	    -10.52595997	     89.67497949	      1.56512365	     -3.96977966
     12.12000000	      0.49853368	    -12.04179750	    -10.34639909	      2.24160719	      0.92383626	      1.04898037	     21.99899803	     13.66814791	     -9.05809728	     45.68195047	      0.79730044	     18.94788263	      5.06601365	    -17.78295753	     -9.63762469	     91.72871137	      1.60096803	     -3.27790639
     12.12666667	      0.29390396	    -12.03041034	    -10.31242490	      2.24004024	      0.92182873	      1.04933790	     21.04103982	     13.70857083	     -8.52957439	     46.34308669	      0.80883945	     20.77889837	      7.80016566	    -18.25708228	     -8.62494154	     93.46188023	      1.63121754	     -2.67088385
     12.13333333	      0.42260753	    -12.04988253	    -10.20917391	      2.23875927	      0.92093811	      1.04964244	     19.42489498	     13.72560894	     -7.98367369	     46.53547638	      0.81219728	     22.45467774	     10.07849375	    -18.72114978	     -7.75908517	     94.71708244	      1.65312495	     -1.96575741
     12.14000000	      0.32694903	    -12.07843989	     -9.78408565	      2.23767639	      0.92045300	      1.04963902	     17.85799946	     13.67297107	     -7.81629709	     46.30223492	      0.80812645	     23.74372134	     12.78711341	    -19.15338936	     -6.53228711	     95.69535250	      1.67019898	     -1.31700171
     12.14666667	      0.39632076	    -11.87501359	     -9.57507935	      2.23685120	      0.92090309	      1.04983407	     15.92906114	     13.42455451	     -7.32228719	     45.80388992	      0.79942869	     24.86844198	     15.08186927	    -19.34504294	     -5.82989473	     96.14908028	      1.67811802	     -0.64292001
     12.15333333	      0.49017951	    -11.85598547	     -8.85386294	      2.23631586	      0.92195024	      1.04952498	     13.76267647	     13.23023752	     -7.40356833	     44.82026501	      0.78226120	     25.47861275	     17.51282225	    -19.55678816	     -4.62513904	     96.31062555	      1.68093752	      0.02179197
     12.16000000	      0.69217145	    -11.66773323	     -8.25123489	      2.23606192	      0.92379241	      1.04934366	     11.34561925	     12.89094599	     -7.31688187	     43.59561176	      0.76088696	     25.75591789	     19.59669786	    -19.58602658	     -3.83647480	     96.00051477	      1.67552507	      0.68812891
     12.16666667	      1.10320444	    -11.41184688	     -7.63342058	      2.23606844	      0.92645834	      1.04913622	      8.57190627	     12.47303909	     -7.20924162	     42.09996688	      0.73478304	     25.65480921	     21.24507417	    -19.51402590	     -3.32865151	     95.25436403	      1.66250228	      1.36880850
     12.17333333	      0.76154526	    -10.78997413	     -7.52235511	      2.23619128	      0.92876158	      1.04944875	      6.71336667	     11.80245123	     -6.76841765	     40.79178729	      0.71195100	     25.27303002	     23.41362645	    -19.28999586	     -3.46555784	     94.16413608	      1.64347421	      2.01291541
     12.18000000	      1.98616856	    -10.53829559	     -6.59697676	      2.23675543	      0.93333545	      1.04887977	      2.79374466	     11.29453302	     -6.89066014	     38.64501732	      0.67448279	     24.24412526	     23.77956332	    -19.03725530	     -3.25102641	     92.58384764	      1.61589298	      2.68609118
     12.18666667	      2.20798040	     -9.95012946	     -6.07989463	      2.23732649	      0.93709285	      1.04864487	      0.15984655	     10.56580943	     -6.89824623	     36.81764632	      0.64258915	     22.95446323	     25.04044735	    -18.57088339	     -3.42313435	     90.76379735	      1.58412711	      3.24405982
     12.19333333	      2.68902451	     -9.25518050	     -5.73979668	      2.23812398	      0.94152391	      1.04854935	     -2.77495900	      9.71170011	     -6.72538206	     34.89283279	      0.60899482	     21.25899860	     25.64550691	    -18.08064956	     -4.10722173	     88.52795775	      1.54510434	      3.80301870
